<svg width="100" height="100" viewBox="0 0 100 100" fill="none" xmlns="http://www.w3.org/2000/svg">
<path d="M24.2964 84.5L52.2964 15L53.7964 10.5L52.7964 9L51.7964 7.5V5.5L52.2964 4L53.2964 3.5L55.2964 3H58.7964L62.2964 4L68.7964 7.5L73.2964 11L74.2964 12L75.2964 13V14V15L70.2964 21L41.2964 90L39.2964 93L36.7964 94.5L34.2964 95H31.2964L28.7964 94L26.7964 92L25.2964 90L24.2964 87.5V84.5Z" fill="#D3D3D3" stroke="white" stroke-width="2"/>
<path d="M42.2968 48L52.2964 43.5L60.7964 38.4999L38.2964 93L31.7964 94L27.7964 92L25.7964 87.5L42.2968 48Z" fill="#D40000"/>
<path d="M28.7641 92.5L27.2964 86.5L28.7641 83L30.2157 79.5862L32.2964 74L34.7964 68L42.7964 47" stroke="#CF8080" stroke-width="2"/>
<path d="M40.7964 47.5L40.5538 46.5299L40.0553 46.6545L39.8664 47.1324L40.7964 47.5ZM25.7964 85.4403L24.8664 85.0726L24.7964 85.2497V85.4403H25.7964ZM25.7964 87.8859H24.7964V88.076L24.8661 88.2529L25.7964 87.8859ZM26.6003 89.924L25.6701 90.2909L25.7182 90.413L25.7963 90.5186L26.6003 89.924ZM27.8062 91.5544L27.0022 92.149L27.0444 92.206L27.0942 92.2565L27.8062 91.5544ZM29.414 93.1848L28.702 93.887L28.8469 94.0339L29.0382 94.1115L29.414 93.1848ZM31.4238 94L31.048 94.9267L31.2287 95H31.4238V94ZM33.8356 94V95H33.936L34.0344 94.9801L33.8356 94ZM35.8454 93.5924L36.0442 94.5725L36.2157 94.5377L36.3652 94.4467L35.8454 93.5924ZM37.8552 92.3696L38.375 93.2239L38.5672 93.1069L38.6908 92.9189L37.8552 92.3696ZM39.4631 89.924L40.2986 90.4733L40.347 90.3998L40.3817 90.319L39.4631 89.924ZM63.2964 34.5L64.215 34.895C64.4045 34.4545 64.2545 33.9414 63.8575 33.6723C63.4605 33.4032 62.9284 33.4538 62.5893 33.7929L63.2964 34.5ZM52.7964 43.5L53.1475 44.4363L53.2553 44.3959L53.3511 44.3321L52.7964 43.5ZM44.7964 46.5L45.0389 47.4701L45.0942 47.4563L45.1475 47.4363L44.7964 46.5ZM57.2964 40.5L57.8511 41.3321L57.9335 41.2771L58.0035 41.2071L57.2964 40.5ZM39.8664 47.1324L24.8664 85.0726L26.7263 85.8079L41.7263 47.8677L39.8664 47.1324ZM24.7964 85.4403V87.8859H26.7964V85.4403H24.7964ZM24.8661 88.2529L25.6701 90.2909L27.5306 89.557L26.7266 87.519L24.8661 88.2529ZM25.7963 90.5186L27.0022 92.149L28.6102 90.9597L27.4043 89.3293L25.7963 90.5186ZM27.0942 92.2565L28.702 93.887L30.1261 92.4827L28.5182 90.8522L27.0942 92.2565ZM29.0382 94.1115L31.048 94.9267L31.7997 93.0734L29.7899 92.2582L29.0382 94.1115ZM31.4238 95H33.8356V93H31.4238V95ZM34.0344 94.9801L36.0442 94.5725L35.6466 92.6124L33.6368 93.02L34.0344 94.9801ZM36.3652 94.4467L38.375 93.2239L37.3354 91.5153L35.3256 92.7381L36.3652 94.4467ZM38.6908 92.9189L40.2986 90.4733L38.6275 89.3746L37.0196 91.8203L38.6908 92.9189ZM40.3817 90.319L64.215 34.895L62.3777 34.105L38.5444 89.5289L40.3817 90.319ZM44.5538 45.5299L40.5538 46.5299L41.0389 48.4702L45.0389 47.4701L44.5538 45.5299ZM52.4453 42.5637L48.4453 44.0637L49.1475 45.9363L53.1475 44.4363L52.4453 42.5637ZM48.4453 44.0637L44.4453 45.5637L45.1475 47.4363L49.1475 45.9363L48.4453 44.0637ZM62.5893 33.7929L56.5893 39.7929L58.0035 41.2071L64.0035 35.2071L62.5893 33.7929ZM56.7417 39.6679L52.2417 42.6679L53.3511 44.3321L57.8511 41.3321L56.7417 39.6679Z" fill="#D40000"/>
<circle cx="40.7964" cy="64" r="2" fill="#CF8080"/>
<circle cx="41.7964" cy="77" r="1" fill="#CF8080"/>
<circle cx="38.7964" cy="71" r="1" fill="#CF8080"/>
<circle cx="48.7964" cy="58" r="1" fill="#CF8080"/>
<ellipse cx="63.4867" cy="10.5762" rx="8.0474" ry="3.33567" transform="rotate(26.5025 63.4867 10.5762)" fill="#010201"/>
</svg>
